<svg xmlns="http://www.w3.org/2000/svg" width="1312" height="1700" viewBox="0 0 1312 1700" preserveAspectRatio="none">
  <defs>
    <filter id="worn" x="-5%" y="-5%" width="110%" height="110%">
      <feTurbulence type="fractalNoise" baseFrequency=".065 .12" numOctaves="3" seed="17" result="grain"/>
      <feDisplacementMap in="SourceGraphic" in2="grain" scale="12" xChannelSelector="R" yChannelSelector="G"/>
    </filter>
  </defs>
  <g fill="none" stroke="#eddfc4" filter="url(#worn)">
    <path d="M3 0V1700M1309 0V1700M0 3H1312M0 1697H1312" stroke-width="8"/>
    <path d="M9 0L7 135 3 302M1306 0L1301 86 1307 209M0 1690L112 1695 224 1697M1310 1445L1304 1568 1307 1700" stroke-width="3" opacity=".65"/>
  </g>
  <g fill="none" stroke="#f2e3c9" stroke-linecap="round">
    <path d="M0 127L28 105 58 99 90 69 126 56 163 32 178 0M0 521L34 508 66 491 104 480M1312 361L1286 375 1263 377 1220 400M1312 1178L1282 1198 1269 1223 1237 1237" stroke-width=".85" opacity=".46"/>
    <path d="M0 130L29 108 58 101M1312 364L1287 378 1265 380M1312 1181L1285 1200" stroke-width=".5" opacity=".3"/>
  </g>
</svg>
